# xmcd
# 
# Track frame offsets:
#     150
#     28084
#     67395
#     78894
# 
# Disc length: 1253
# 
# Revision: 0
# Processed by: cddbd v1.5.2PL0 Copyright (c) Steve Scherf et al.
# Submitted via: fre:ac v1.0.17
# 
DISCID=3004e304
DTITLE=Eric Prydz vs Floyd - Proper Education (Promo CD Single)
DYEAR=2007
DGENRE=
TTITLE0=Proper Education (Club Mix)
TTITLE1=Proper Education (Dub)
TTITLE2=Proper Education (Instrumental)
TTITLE3=Proper Education (Radio Edit)
EXTD=
EXTT0=
EXTT1=
EXTT2=
EXTT3=
PLAYORDER=
